<?xml version="1.0" encoding="UTF-8" standalone="no"?>
<!-- Created with Inkscape (http://www.inkscape.org/) -->

<svg
   xmlns:dc="http://purl.org/dc/elements/1.1/"
   xmlns:cc="http://creativecommons.org/ns#"
   xmlns:rdf="http://www.w3.org/1999/02/22-rdf-syntax-ns#"
   xmlns:svg="http://www.w3.org/2000/svg"
   xmlns="http://www.w3.org/2000/svg"
   version="1.1"
   width="350"
   height="272.77374"
   id="svg3004"
   xml:space="preserve"><metadata
     id="metadata3010"><rdf:RDF><cc:Work
         rdf:about=""><dc:format>image/svg+xml</dc:format><dc:type
           rdf:resource="http://purl.org/dc/dcmitype/StillImage" /><dc:title></dc:title></cc:Work></rdf:RDF></metadata><defs
     id="defs3008"><clipPath
       id="clipPath3018"><path
         d="m 0,218.219 280,0 L 280,0 0,0 0,218.219 z"
         id="path3020" /></clipPath></defs><g
     transform="matrix(1.25,0,0,-1.25,0,272.77375)"
     id="g3012"><g
       id="g3014"><g
         clip-path="url(#clipPath3018)"
         id="g3016"><g
           transform="translate(0,84.3437)"
           id="g3022"><path
             d="m 0,0 c 0,0 34.102,16.53 34.102,66.948 0,36.96 29.961,66.927 66.927,66.927 l 112.044,0 C 250.038,133.875 280,103.908 280,66.948 280,29.972 250.038,0 213.073,0 L 101.029,0 C 86.417,0 72.943,4.733 61.939,12.681 45.128,4.9 25.411,0 0,0"
             id="path3024"
             style="fill:#000000;fill-opacity:1;fill-rule:nonzero;stroke:none" /></g><g
           transform="translate(121.7266,151.2812)"
           id="g3026"><path
             d="m 0,0 c 0,-8.235 -6.676,-14.911 -14.911,-14.911 -8.235,0 -14.911,6.676 -14.911,14.911 0,8.235 6.676,14.911 14.911,14.911 C -6.676,14.911 0,8.235 0,0"
             id="path3028"
             style="fill:#ffffff;fill-opacity:1;fill-rule:nonzero;stroke:none" /></g><g
           transform="translate(172.8223,151.2812)"
           id="g3030"><path
             d="m 0,0 c 0,-8.235 -6.676,-14.911 -14.911,-14.911 -8.235,0 -14.911,6.676 -14.911,14.911 0,8.235 6.676,14.911 14.911,14.911 C -6.676,14.911 0,8.235 0,0"
             id="path3032"
             style="fill:#ffffff;fill-opacity:1;fill-rule:nonzero;stroke:none" /></g><g
           transform="translate(225.7002,151.2812)"
           id="g3034"><path
             d="m 0,0 c 0,-8.235 -6.676,-14.911 -14.911,-14.911 -8.235,0 -14.911,6.676 -14.911,14.911 0,8.235 6.676,14.911 14.911,14.911 C -6.676,14.911 0,8.235 0,0"
             id="path3036"
             style="fill:#ffffff;fill-opacity:1;fill-rule:nonzero;stroke:none" /></g><g
           transform="translate(21.1597,6.8398)"
           id="g3038"><path
             d="M 0,0 5.46,6.539 C 9.24,3.42 13.2,1.439 18,1.439 c 3.779,0 6.059,1.5 6.059,3.96 l 0,0.121 c 0,2.339 -1.44,3.54 -8.459,5.339 -8.46,2.161 -13.92,4.5 -13.92,12.839 l 0,0.12 c 0,7.62 6.12,12.661 14.699,12.661 6.121,0 11.34,-1.92 15.6,-5.34 l -4.8,-6.96 c -3.72,2.58 -7.38,4.139 -10.919,4.139 -3.54,0 -5.4,-1.62 -5.4,-3.66 l 0,-0.119 c 0,-2.761 1.8,-3.66 9.059,-5.52 8.52,-2.22 13.32,-5.28 13.32,-12.6 l 0,-0.119 c 0,-8.34 -6.36,-13.02 -15.42,-13.02 C 11.46,-6.72 5.04,-4.5 0,0"
             id="path3040"
             style="fill:#231f20;fill-opacity:1;fill-rule:nonzero;stroke:none" /></g><g
           transform="translate(90.5132,21.539)"
           id="g3042"><path
             d="m 0,0 c 4.62,0 7.32,2.76 7.32,6.359 l 0,0.12 c 0,4.14 -2.88,6.36 -7.5,6.36 l -7.14,0 L -7.32,0 0,0 z m -16.56,21.179 17.16,0 c 10.02,0 16.079,-5.94 16.079,-14.52 l 0,-0.119 C 16.679,-3.18 9.12,-8.22 -0.3,-8.22 l -7.02,0 0,-12.599 -9.24,0 0,41.998 z"
             id="path3044"
             style="fill:#231f20;fill-opacity:1;fill-rule:nonzero;stroke:none" /></g><g
           transform="translate(158.7324,21.5985)"
           id="g3046"><path
             d="m 0,0 0,0.12 c 0,7.2 -5.279,13.199 -12.72,13.199 -7.44,0 -12.599,-5.88 -12.599,-13.079 l 0,-0.12 c 0,-7.199 5.279,-13.199 12.719,-13.199 7.44,0 12.6,5.88 12.6,13.079 m -34.979,0 0,0.12 c 0,11.94 9.42,21.72 22.379,21.72 12.96,0 22.26,-9.66 22.26,-21.6 l 0,-0.12 c 0,-11.939 -9.42,-21.719 -22.38,-21.719 -12.959,0 -22.259,9.66 -22.259,21.599"
             id="path3048"
             style="fill:#231f20;fill-opacity:1;fill-rule:nonzero;stroke:none" /></g><g
           transform="translate(187.9355,42.7177)"
           id="g3050"><path
             d="m 0,0 9.239,0 0,-18.359 L 26.278,0 l 11.16,0 -17.099,-17.819 17.879,-24.179 -11.099,0 -13.019,17.879 -4.861,-5.039 0,-12.84 -9.239,0 L 0,0 z"
             id="path3052"
             style="fill:#231f20;fill-opacity:1;fill-rule:nonzero;stroke:none" /></g><g
           transform="translate(243.1836,42.7177)"
           id="g3054"><path
             d="m 0,0 31.679,0 0,-8.22 -22.499,0 0,-8.519 19.799,0 0,-8.22 -19.799,0 0,-8.819 22.799,0 0,-8.22 L 0,-41.998 0,0 z"
             id="path3056"
             style="fill:#231f20;fill-opacity:1;fill-rule:nonzero;stroke:none" /></g></g></g></g></svg>